/* XPM */
static char *result[] = {
/* columns rows colors chars-per-pixel */
"35 35 204 2 ",
"   c #CF313B",
".  c #D43138",
"X  c #EC2723",
"o  c #ED2723",
"O  c #ED2724",
"+  c #EB2925",
"@  c #EB2B27",
"#  c #EC2824",
"$  c #ED2824",
"%  c #ED2924",
"&  c #EC2925",
"*  c #ED2925",
"=  c #ED2A26",
"-  c #ED2B27",
";  c #EC2C28",
":  c #EC2C29",
">  c #EC2D29",
",  c #ED2D29",
"<  c #EE2C28",
"1  c #EE2C29",
"2  c #EC2E2A",
"3  c #ED2E2A",
"4  c #ED2F2B",
"5  c #EE2F2B",
"6  c #E7332F",
"7  c #E8312E",
"8  c #E8322E",
"9  c #EA332F",
"0  c #ED302C",
"q  c #EE302C",
"w  c #EE302D",
"e  c #EE332F",
"r  c #E73431",
"t  c #E73532",
"y  c #E73632",
"u  c #E83330",
"i  c #E83430",
"p  c #E93430",
"a  c #E93431",
"s  c #E83531",
"d  c #E93531",
"f  c #EA3531",
"g  c #E93532",
"h  c #E83632",
"j  c #E83633",
"k  c #E93633",
"l  c #E83733",
"z  c #E93733",
"x  c #EE3632",
"c  c #E23936",
"v  c #E23A37",
"b  c #E93835",
"n  c #E93A37",
"m  c #EE3935",
"M  c #E33B38",
"N  c #E13C39",
"B  c #E33C39",
"V  c #E23D3A",
"C  c #E33D3A",
"Z  c #E23E3A",
"A  c #E33E3B",
"S  c #E93E3B",
"D  c #DC403C",
"F  c #DC403D",
"G  c #DD403D",
"H  c #DE413E",
"J  c #DE423F",
"K  c #EF413D",
"L  c #EF413E",
"P  c #AF3F57",
"I  c #A83D5A",
"U  c #A83E5A",
"Y  c #AF3F58",
"T  c #A1405F",
"R  c #A8425F",
"E  c #D94A47",
"W  c #D94B48",
"Q  c #DC4D4A",
"!  c #DA5350",
"~  c #DD5451",
"^  c #E14744",
"/  c #EF4441",
"(  c #EF4844",
")  c #E74A48",
"_  c #F04744",
"`  c #F04844",
"'  c #F04845",
"]  c #E65653",
"[  c #F05754",
"{  c #F15754",
"}  c #F15D5A",
"|  c #C45D6F",
" . c #DE7977",
".. c #DF7B7A",
"X. c #E26360",
"o. c #E16B69",
"O. c #E4716F",
"+. c #E47170",
"@. c #E67371",
"#. c #E27472",
"$. c #E37573",
"%. c #E07674",
"&. c #E37877",
"*. c #E37977",
"=. c #E57876",
"-. c #E07B79",
";. c #E47A78",
":. c #E07C7A",
">. c #F47D7A",
",. c #F47D7B",
"<. c #F47F7E",
"1. c #E3807F",
"2. c #E3817F",
"3. c #E5817F",
"4. c #F4817F",
"5. c #3E60AC",
"6. c #D38482",
"7. c #D48988",
"8. c #D58A89",
"9. c #D78F8C",
"0. c #D88E8C",
"q. c #DF908F",
"w. c #D79290",
"e. c #E08281",
"r. c #E58281",
"t. c #E58381",
"y. c #E68381",
"u. c #E68382",
"i. c #E68C8A",
"p. c #E78D8B",
"a. c #E08E8C",
"s. c #E18F8E",
"d. c #F58684",
"f. c #F5908E",
"g. c #E69493",
"h. c #E09796",
"j. c #F69290",
"k. c #F69695",
"l. c #F49896",
"z. c #F69896",
"x. c #F69B99",
"c. c #F69B9A",
"v. c #F79C9A",
"b. c #F79F9D",
"n. c #F79F9E",
"m. c #E1A19F",
"M. c #F7A09E",
"N. c #DCB3B2",
"B. c #D0BDBD",
"V. c #E6B0AF",
"C. c #E9B3B2",
"Z. c #889CCB",
"A. c #889DCC",
"S. c #8FA2CF",
"D. c #8FA3CF",
"F. c #A1A6C1",
"G. c #AAB5D0",
"H. c #B1B4D2",
"J. c #B2BFDE",
"K. c #BFC6D6",
"L. c #BAC6E1",
"P. c #BEC9E3",
"I. c #D3C2C2",
"U. c #DFCACA",
"Y. c #DADADA",
"T. c #E0C0C0",
"R. c #E9C0C0",
"E. c #ECC4C4",
"W. c #E6D1D1",
"Q. c #E5D5D5",
"!. c #E8D4D4",
"~. c #E9D4D4",
"^. c #E9D6D5",
"/. c #E0D8D9",
"(. c #ECD8D8",
"). c #EFDADA",
"_. c #E9DFDF",
"`. c #FBD9D8",
"'. c #FBDAD9",
"]. c #CFD7EA",
"[. c #D2DAEB",
"{. c #E7DFE0",
"}. c #E7E1E1",
"|. c #EAE1E1",
" X c #EBE4E4",
".X c #F6E4E4",
"XX c #FDEAE9",
"oX c #FCEAEA",
"OX c #FDEAEA",
"+X c #FDEBEA",
"@X c #FDEBEB",
"#X c #FDECEB",
"$X c #FEECEC",
"%X c #FDEEED",
"&X c #FEEFEE",
"*X c #FDF1F0",
"=X c #FEF0F0",
"-X c #FEF1F1",
";X c #FEF2F2",
":X c #FEFDFD",
">X c #FEFEFE",
",X c #FFFEFE",
"<X c white",
"1X c #091E28",
/* pixels */
"1X1X1X1X1X1X1X1X1X1X1X1X@.$ $ $ $ $ $ $ $ $ p.1X1X1X1X1X1X1X1X1X1X1X1X",
"1X1X1X1X1X1X1X1X1X1X1X1XO.$ $ $ $ $ $ $ $ $ i.1X1X1X1X1X1X1X1X1X1X1X1X",
"1X1X1X1X1X1X1XV.1.y.r.1.) $ $ $ $ $ $ $ $ $ ] 1.t.u.2.R.1X1X1X1X1X1X1X",
"1X1X1X1X1X1X1X=.$ $ $ $ $ $ $ $ $ $ $ $ $ $ $ $ $ $ $ g.1X1X1X1X1X1X1X",
"1X1X1X1X1X1X!.o.$ $ $ $ $ $ $ $ $ $ $ $ $ $ $ $ $ $ $ e.^..X1X1X1X1X1X",
"1X1X1X1X1Xb : = $ $ $ $ $ $ $ $ $ $ $ $ $ $ $ $ $ $ $ - > n 1X1X1X1X1X",
"1X1X1X1X1Xa $ $ $ $ $ $ $ $ $ $ $ $ $ $ $ $ $ $ $ $ $ $ $ g 1X1X1X1X1X",
"1X1XC.*.+.2 $ $ $ < x.v.v.v.j.1 $ $ $ $ $ $ $ $ m c.v.v.v.l.;.&.E.1X1X",
"1X1X-.$ $ $ $ $ $ q ,X<X<X<X$Xw $ $ $ $ $ $ $ $ ' <X<X<X<X#Xq $ h.1X1X",
"1X1X-.$ $ $ $ x K _ ,X<X<X<X&X' K e $ $ $ $ x K } <X<X<X<X%X` L m.1X1X",
"1X1X3.$ $ $ $ k.=X*X<X<X<X<X,X*X=X<.$ $ $ $ z.=X;X<X<X<X<X:X-X=X1X1X1X",
"1X1X-.$ $ $ $ b.<X<X<X<X<X<X<X<X<Xd.$ $ $ $ M.<X<X<X<X<X<X<X<X<X1X1X1X",
"1X1X:.$ $ $ $ b.<X<X<X<XP.D.D.D.D.| $ $ $ $ M.<X<X<X<XL.D.D.D.D.K.1X1X",
"1X1X3.$ $ $ $ b.<X<X<X<XS.5.5.5.5.T X X X X n.>X>X>X>XZ.5.5.5.5.G.1X1X",
"1X1X%.$ $ $ $ b.<X<X<X<XS.5.5.5.5.T X X X X n.>X>X>X>XA.5.5.5.5.F._.|.",
"f $ $ $ $ $ $ b.<X<X<X<XS.5.5.5.5.T X X X X n.>X>X>X>XZ.5.5.5.5.P O k ",
"p $ $ $ $ $ $ b.<X<X<X<XS.5.5.5.5.T X X X X n.>X>X>X>XA.5.5.5.5.Y X y ",
"a $ $ $ $ $ $ { ,.4.,X<X[.J.H.R I   X X X X [ >.f.>X>X].J.H.R U . $ h ",
"a $ $ $ $ $ $ $ $ q ,X<X<X>X#X0 X X X X X X X X ( >X>X>X>X@X4 X X X z ",
"i $ $ $ $ $ $ $ $ 5 XX+X+XOX'.4 X X X X X X X X / oXOXOXOX`.3 $ X $ t ",
"a $ $ $ $ $ $ $ $ $ 5 5 3 3 , X X X X X X X X X # 3 3 3 3 , X X X X h ",
"d $ $ $ $ $ $ $ $ $ $ $ $ X X X X X X X X X X X X X X X X X X $ X $ z ",
"i $ $ $ $ $ $ $ $ $ $ $ X X X X X X X X X X X X X X X X X X X X X X t ",
"a $ $ $ $ $ $ $ $ $ $ $ $ X X X X X X X X X X X X X X X X X X X X X h ",
"d $ $ $ $ $ $ $ $ $ $ $ X X X X X X X X X X X X X X X X X X X $ X X l ",
"p $ $ $ $ $ $ $ $ $ $ $ $ X X X X X X X X X X X X X X X X X X X X X y ",
"a $ $ $ $ $ $ $ $ $ $ $ X X X X X X X X X X X X X X X X X X X $ X X h ",
"f $ $ $ $ $ $ $ $ $ $ $ $ X X X X X X X X X X X X X X X X X X X $ X z ",
"i $ $ $ $ $ $ $ $ $ $ $ $ X X X X X X X X X X X X X X X X X X $ X $ t ",
"p $ $ $ & v A 7 $ $ $ $ $ X + B C N V M X X X X X X X r Z c # X X X h ",
"a $ $ $ 8 I.1X#.$ $ $ $ $ X 6 /.1XY.1XU.$ X X X X X X a.1XB.@ X X X j ",
"u X $ $ 9 1X1X$.$ $ $ $ X X d {.1X1X1XW.$ X X X X X o s.1X(.; X X X t ",
"p X ~ 0.w.1X1XN.8.6.% $ X $ s 1X1X1X1X~.$ X $ X i 7.8.T.1X X9.0.^ X h ",
"a $ ..1X1X1X1X1X1X1X* $ X X i 1X1X1X1X).$ X X X S 1X1X1X1X1X1X1XX.X j ",
"E G q.1X1X1X1X1X1X1XH J D G Q }.1X1X1XQ.J D F H ! 1X1X1X1X1X1X1X .G W "
};
