/* XPM */
static char *result[] = {
/* columns rows colors chars-per-pixel */
"35 36 193 2 ",
"   c #400700",
".  c #440B01",
"X  c #091E28",
"o  c #4C1302",
"O  c #541B04",
"+  c #581F05",
"@  c #5D2405",
"#  c #682F07",
"$  c #091E28",
"%  c #6B3207",
"&  c #753E0A",
"*  c #6E3F11",
"=  c #7C4409",
"-  c #744B17",
";  c #614320",
":  c #7A4F26",
">  c #7B5C2F",
",  c #705A49",
"<  c #7D614E",
"1  c #7D6553",
"2  c #7D6A53",
"3  c #7B6A63",
"4  c #8B4E04",
"5  c #844B0B",
"6  c #80470A",
"7  c #8C530C",
"8  c #945201",
"9  c #995601",
"0  c #9D5902",
"q  c #91580D",
"w  c #834E14",
"e  c #875013",
"r  c #8F5715",
"t  c #8C5B1B",
"y  c #88581B",
"u  c #A35D00",
"i  c #9A610F",
"p  c #9C6511",
"a  c #906715",
"s  c #A56102",
"d  c #AA6402",
"f  c #AF6904",
"g  c #B16C05",
"h  c #AB700B",
"j  c #BB7708",
"k  c #BD7B0A",
"l  c #B77307",
"z  c #A16711",
"x  c #A46B11",
"c  c #A97C18",
"v  c #B67C12",
"b  c #8F5D22",
"n  c #865829",
"m  c #865F39",
"M  c #8F632B",
"N  c #8A6527",
"B  c #9A742D",
"V  c #99762C",
"C  c #8B6633",
"Z  c #906532",
"A  c #8E763F",
"S  c #987738",
"D  c #A57D29",
"F  c #C17E0A",
"G  c #856243",
"H  c #8F6942",
"J  c #86664B",
"K  c #8A6B4A",
"L  c #977B40",
"P  c #947B4C",
"I  c #957447",
"U  c #876C58",
"Y  c #906F50",
"T  c #977D52",
"R  c #9A7E52",
"E  c #94775D",
"W  c #937A59",
"Q  c #8A7363",
"!  c #8D7C6B",
"~  c #86766D",
"^  c #927E6B",
"/  c #927B65",
"(  c #917D72",
")  c #BC8315",
"_  c #B8891A",
"`  c #AA8428",
"'  c #B48B2D",
"]  c #BA8E28",
"[  c #B88C23",
"{  c #B88F31",
"}  c #AE8835",
"|  c #C4820B",
" . c #CC8B0E",
".. c #C28A16",
"X. c #091E28",
"o. c #C08715",
"O. c #CA951A",
"+. c #D39511",
"@. c #DB9D14",
"#. c #D39C1A",
"$. c #091E28",
"%. c #DBA41B",
"&. c #DFAA1C",
"*. c #D7A119",
"=. c #E3A516",
"-. c #E5A917",
";. c #E4AB1B",
":. c #EAAE19",
">. c #E6B01D",
",. c #ECB31C",
"<. c #F1B61C",
"1. c #F5BB1D",
"2. c #F8BF1E",
"3. c #C69721",
"4. c #C49C3D",
"5. c #D9A724",
"6. c #CCA53D",
"7. c #E1AC20",
"8. c #EAB625",
"9. c #F3BE25",
"0. c #FBC21F",
"q. c #FBC322",
"w. c #FAC62C",
"e. c #F9C52B",
"r. c #EEC23C",
"t. c #F5C534",
"y. c #FCCB35",
"u. c #FBCE3D",
"i. c #F3C73F",
"p. c #988358",
"a. c #A18143",
"s. c #B69548",
"d. c #A48F5E",
"f. c #AE9058",
"g. c #B49C54",
"h. c #B9A25F",
"j. c #94826E",
"k. c #9F8C69",
"l. c #9C8066",
"z. c #8E807A",
"x. c #9C8C77",
"c. c #9C8B7B",
"v. c #958477",
"b. c #A39064",
"n. c #B29D62",
"m. c #A89776",
"M. c #B29D71",
"N. c #A2876B",
"B. c #B7A572",
"V. c #D3B34C",
"C. c #C7AB55",
"Z. c #CFB55B",
"A. c #D1B85E",
"S. c #CDA947",
"D. c #E5BE43",
"F. c #C1AA68",
"G. c #DDC35F",
"H. c #FDD348",
"J. c #F8D658",
"K. c #E9C346",
"L. c #D9C267",
"P. c #E5CB65",
"I. c #F6D862",
"U. c #FEE776",
"Y. c #9B8C85",
"T. c #9E918D",
"R. c #A99683",
"E. c #A4948C",
"W. c #A7988F",
"Q. c #AB9B8B",
"!. c #AA9C82",
"~. c #A19795",
"^. c #A79C96",
"/. c #AA9E9A",
"(. c #AFA28D",
"). c #ACA193",
"_. c #B6AA9B",
"`. c #B9AC9B",
"'. c #B2A48A",
"]. c #AEA5A3",
"[. c #B2A7A2",
"{. c #B5ABA5",
"}. c #B6AEAC",
"|. c #B8AEA7",
" X c #BDB4AF",
".X c #BAB2B2",
"XX c #C0B8AE",
"oX c #C1B7B2",
"OX c #C0BABA",
"+X c #CAC4C4",
"@X c #E1DEDE",
"#X c #E4E1DF",
"$X c #091E28",
/* pixels */
"$X$X$X$X$X$X$X$X$X$X$X$X$X{.W.x.j.^ ^ v.Y.^..X$X$X$X$X$X$X$X$X$X$X$X$X",
"$X$X$X$X$X$X$X$X$X$X{.m.f.s.4.4.6.6.S.C.C.F.B.M.Q.{.$X$X$X$X$X$X$X$X$X",
"$X$X$X$X$X$X$X$X_.M.s.{ 3.&.:.8.9.e.e.t.r.K.V.C.h.M.(. X$X$X$X$X$X$X$X",
"$X$X$X$X$X$X$XR.S [ *.1.0.0.q.q.0.0.0.0.q.q.y.H.J.G.g.k.).$X$X$X$X$X$X",
"$X$X$X$X$X$X^ t ,.0.0.0.0.0.0.0.0.0.0.0.0.0.0.q.e.H.U.A.p.3 $X$X$X$X$X",
"$X$X$X$X$XQ B #.0.0.0.0.0.0.0.0.0.0.0.0.0.0.0.0.q.e.H.J.L.g.! $X$X$X$X",
"$X$X$X$XQ N ) 1.0.0.0.0.0.0.0.0.0.0.2.>.$.X.%.<.0.0.q.H.J.P.n.Q.$X$X$X",
"$X$X$Xv.* v -.0.0.0.0.0.0.0.0.0.0.0.*.v q 5 i X.,.0.q.q.y.J.P.b.`.$X$X",
"$X$X).: u @.1.0.0.0.0.0.0.0.0.0.0.0.i @ .   . = X.0.0.0.q.y.J.A.M.}.$X",
"$X$XE 7 F :.2.0.0.0.0.0.0.0.0.0.0.0.= .       O z 0.0.0.0.q.u.I.h.x.+X",
"$XQ.m u +.1.0.0.0.0.0.0.0.0.0.0.0.0.= X       @ x 0.0.0.0.0.w.J.Z.b.T.",
"@X^ y g =.2.0.0.0.0.1.<.<.2.2.2.0.0.p # o X @ = X.0.0.0.0.0.0.u.V.p.3 ",
"$XH 7 j ,.9.0.0.2.;.O.o.o.=.<.9.0.0.#.x = $ 5 ) :.0.0.0.0.0.,.5.s.p.~ ",
"/.Z 0 F 1.2.0.2.<.z # O + 7 $.9.0.0.0.<.>.*.,.0.0.0.0.0.0.,._ N Q [.$X",
"v.b u F 1.2.0.<.O.# o . . O p @.q.0.0.0.0.<.0.0.0.0.0.<._ N K _.$X$X$X",
"Q b u F 1.2.0.,.v +       . 5 O.0.0.0.0.0.0.0.0.0.<.O.V P c. X$X$X$X$X",
"U r d F 1.2.0.,.) # .   . o q O.0.0.0.0.0.q.2.:.3.] a.j.].$X$X$X$X$X$X",
"< r u F <.2.0.2.;.= + o O $ _ >.0.0.0.0.q.,.&.[ C 2  X$X$X$X$X$X$X$X$X",
"1 r u j :.2.0.0.2.;.) i p *.>.0.0.0.0.0.&.c > j. X#X$X$X$X$X$X$X$X$X$X",
"U r u l -.1.q.0.0.2.,.&.&.1.0.q.0.0.&._ B W |.$X$X$X$X$X$X$X$X$X$X$X$X",
"( b 0 f +.<.0.0.0.0.0.0.0.0.0.0.&.O.} p.x.}.$X$X$X$X$X$X$X$X$X$X$X$X$X",
"~.M 9 u k :.0.0.0.0.0.0.0.0.&.#.' I c.}.$X$X$X$X$X$X$X$X$X$X$X$X$X$X$X",
"$XH 4 u s @.1.q.0.0.0.0.,.#.c C ~ $X$X$X$X$X$X$X$X$X$X$X$X$X$X$X$X$X$X",
"$XE w u u k =.0.0.0.0.;._ - ; , z.).$X$X$X$X$X@X$X$X$X$X$X$X$X$X$X$X$X",
"$XY.n 9 u f +.9.0.0.2.;._ a N C P W p.j.j.v.v.Y.T.~.].}..X+X+X$X@X$X$X",
"$X$XY 4 u u F -.0.0.0.,.&.*.O.3.[ ` ` V V S L P p.p.k.m.m.Q.'.)._.+X$X",
"$X$XR.- u u f F <.0.0.0.0.0.0.0.q.q.q.q.e.y.H.H.J.I.P.L.Z.C.h.A 2 ~.$X",
"$X$X$X/ & 9 u g | ,.0.0.0.0.0.0.0.0.0.q.q.q.q.q.q.q.q.w.t.i.K.S Q.$X$X",
"$X$X$XOXJ = 8 u f F @.<.0.0.0.0.0.0.0.0.0.0.0.0.0.0.0.q.q.8.} m.$X$X$X",
"$X$X$X$X}.J w 9 u d j  .-.1.0.0.0.0.0.0.0.0.0.0.0.0.0.0.&.] T $X$X$X$X",
"$X$X$X$X$X/.J w 8 0 u g | =.:.<.1.0.0.0.0.0.0.0.0.2.<.&.' R $X$X$X$X$X",
"$X$X$X$X$X$X}.U = 4 0 u s f j  .*.:.,.<.1.0.1.1.,.=...N j.$X$X$X$X$X$X",
"$X$X$X$X$X$X$X$XQ.J : 5 8 u s f g l F F | | k h p M E $X$X$X$X$X$X$X$X",
"$X$X$X$X$X$X$X$X$XoXQ.l.H n y w 7 e 7 r r b Z P N.Q.$X$X$X$X$X$X$X$X$X",
"$X$X$X$X$X$X$X$X$X$X$X$X[.c./ U G C G J Y ^ E.$X$X$X$X$X$X$X$X$X$X$X$X",
"$X$X$X$X$X$X$X$X$X$X$X$X$X$X$X$X$X$X$X$X$X$X$X$X$X$X$X$X$X$X$X$X$X$X$X"
};
